<?xml version="1.0" encoding="UTF-8"?>
<svg width="1592px" height="1659px" viewBox="0 0 1592 1659" version="1.1" xmlns="http://www.w3.org/2000/svg" xmlns:xlink="http://www.w3.org/1999/xlink">
    <!-- Generator: Sketch 57.1 (83088) - https://sketch.com -->
    <title>Untitled 3</title>
    <desc>Created with Sketch.</desc>
    <g id="Page-1" stroke="none" stroke-width="1" fill="none" fill-rule="evenodd">
        <g id="1704955" fill="#B32C2C" fill-rule="nonzero">
            <g id="Group" transform="translate(796.100000, 829.700000) scale(-1, 1) rotate(-180.000000) translate(-796.100000, -829.700000) translate(0.600000, 0.700000)">
                <path d="M1034.9,1467.6 C991.9,1463.6 954.3,1452.7 915.9,1433.3 C880.6,1415.4 854.9,1396.3 825.9,1366.6 C798.3,1338.3 778.8,1310.7 760.5,1273.9 C747.1,1247 738.7,1224.7 729.8,1192.3 C717.5,1147.1 709.6,1104.7 705.2,1059.2 C703.2,1038.9 703.6,978.8 705.8,960.2 C709.8,926 714.9,902.1 724.4,873.7 C734.1,844.6 745.7,820.5 761.6,796.7 C774.6,777.1 782.3,767.7 798.3,751.7 C818.6,731.5 836,718.2 861.9,703.4 C872.3,697.5 873.4,696.6 869.9,697.2 C867.7,697.5 848.4,698 826.9,698.3 C783.2,698.9 759.3,698 758.6,695.9 C758.2,694.8 760.4,694.6 770.5,695.3 C790.7,696.5 852.6,696.2 864.4,694.8 C875.4,693.5 883.2,691.9 883.8,690.8 C884.1,690.4 883.5,689.1 882.5,687.8 C880.8,685.6 879.8,685.5 858.8,684.2 C825.2,682.1 807.9,678.7 792,671.2 C784.2,667.5 772.4,659.4 772.4,657.7 C772.4,655.9 774.5,656.7 778.7,660 C794.3,672.5 819.1,679.5 852.9,681.2 C859.5,681.5 868,682 871.8,682.3 L878.6,682.8 L874.1,677 C856.6,654.9 835.1,635.7 827.8,635.7 C826.6,635.7 825.1,635 824.4,634.2 C822.2,631.5 826.8,628 843.2,619.9 C851.7,615.7 858.3,611.9 858,611.3 C851.8,597.4 847.3,581.9 845.5,568.4 C844.9,564.1 844.4,551.8 844.4,541.2 C844.4,506.1 841.3,483.2 833.4,460.3 C817.8,415.1 785.7,378.7 726.4,339.3 C685.8,312.2 663.8,301.2 622.4,287.3 C573.4,270.9 523.8,259 397.8,233.8 C309.9,216.2 286.3,210.8 263.9,203 C252.3,198.9 247.9,196.8 243.5,193.1 C241.4,191.3 240.6,190.1 241.3,189.4 C241.9,188.8 242.8,189 243.9,190.1 C254.4,200.5 286.1,208.8 409.9,233.6 C522.8,256.1 569.3,267.2 620.3,283.9 C662.1,297.5 688.5,310.5 727.9,336.8 C785.9,375.6 818.4,411.8 834.7,455.7 C843.2,478.7 845.4,493.3 846.4,532.2 C847,554 847.7,567.1 848.8,573.2 C850.8,584 855.7,600.4 858.9,606.8 L861.3,611.4 L878.1,604.7 C897.6,596.9 921.6,588.8 935.9,585.1 C947.8,582.1 959.4,580.8 959.4,582.6 C959.4,583.2 958.3,590.4 956.9,598.5 C950.4,637.3 949.6,654.2 953.7,664.7 L956.2,671.1 L976,671.3 C1002.1,671.4 1016.8,673.6 1043.9,681.3 C1121.3,703.1 1202.9,763.2 1261.7,841.4 C1305.3,899.4 1334.3,966.7 1343.8,1031.7 C1352.1,1088.4 1352.3,1156.8 1344.4,1207.6 C1324.7,1334.7 1259.7,1419.6 1156.4,1453.6 C1118.6,1466 1073.4,1471.2 1034.9,1467.6 Z" id="Path" transform="translate(795.615551, 828.893116) rotate(29.000000) translate(-795.615551, -828.893116) "></path>
            </g>
        </g>
    </g>
</svg>